<mxfile host="app.diagrams.net" agent="Mozilla/5.0 (Windows NT 10.0; Win64; x64) AppleWebKit/537.36 (KHTML, like Gecko) Chrome/131.0.0.0 Safari/537.36" version="26.0.5">
  <diagram name="Page-1" id="qpd3nq3ag12a_y1Lz0g0">
    <mxGraphModel dx="1434" dy="790" grid="0" gridSize="10" guides="1" tooltips="1" connect="1" arrows="1" fold="1" page="1" pageScale="1" pageWidth="850" pageHeight="1100" math="0" shadow="0">
      <root>
        <mxCell id="0" />
        <mxCell id="1" parent="0" />
        <mxCell id="IF28Vt8e3HH5cNFO-Xon-1" value="" style="whiteSpace=wrap;html=1;aspect=fixed;" vertex="1" parent="1">
          <mxGeometry x="144" y="119" width="662" height="662" as="geometry" />
        </mxCell>
        <mxCell id="IF28Vt8e3HH5cNFO-Xon-2" value="CHATWAVE" style="text;html=1;align=center;verticalAlign=middle;whiteSpace=wrap;rounded=0;fontSize=20;" vertex="1" parent="1">
          <mxGeometry x="445" y="123" width="60" height="30" as="geometry" />
        </mxCell>
        <mxCell id="IF28Vt8e3HH5cNFO-Xon-3" value="User" style="shape=umlActor;verticalLabelPosition=bottom;verticalAlign=top;html=1;outlineConnect=0;" vertex="1" parent="1">
          <mxGeometry x="34" y="334" width="80" height="150" as="geometry" />
        </mxCell>
        <mxCell id="IF28Vt8e3HH5cNFO-Xon-4" value="Admin" style="shape=umlActor;verticalLabelPosition=bottom;verticalAlign=top;html=1;outlineConnect=0;" vertex="1" parent="1">
          <mxGeometry x="853" y="450" width="90" height="150" as="geometry" />
        </mxCell>
        <mxCell id="IF28Vt8e3HH5cNFO-Xon-5" value="Update Password" style="ellipse;whiteSpace=wrap;html=1;" vertex="1" parent="1">
          <mxGeometry x="228" y="196" width="120" height="67" as="geometry" />
        </mxCell>
        <mxCell id="IF28Vt8e3HH5cNFO-Xon-6" value="Update Account Info" style="ellipse;whiteSpace=wrap;html=1;" vertex="1" parent="1">
          <mxGeometry x="238" y="303" width="120" height="64" as="geometry" />
        </mxCell>
        <mxCell id="IF28Vt8e3HH5cNFO-Xon-7" value="Delete User Account" style="ellipse;whiteSpace=wrap;html=1;" vertex="1" parent="1">
          <mxGeometry x="587" y="559" width="120" height="64" as="geometry" />
        </mxCell>
        <mxCell id="IF28Vt8e3HH5cNFO-Xon-8" value="Update User Info" style="ellipse;whiteSpace=wrap;html=1;" vertex="1" parent="1">
          <mxGeometry x="587" y="437" width="120" height="64" as="geometry" />
        </mxCell>
        <mxCell id="IF28Vt8e3HH5cNFO-Xon-9" value="Update Profile Picture" style="ellipse;whiteSpace=wrap;html=1;" vertex="1" parent="1">
          <mxGeometry x="238" y="410" width="120" height="64" as="geometry" />
        </mxCell>
        <mxCell id="IF28Vt8e3HH5cNFO-Xon-11" value="Logout" style="ellipse;whiteSpace=wrap;html=1;" vertex="1" parent="1">
          <mxGeometry x="241" y="524" width="120" height="64" as="geometry" />
        </mxCell>
        <mxCell id="IF28Vt8e3HH5cNFO-Xon-12" value="Enter Password" style="ellipse;whiteSpace=wrap;html=1;" vertex="1" parent="1">
          <mxGeometry x="482" y="201" width="120" height="67" as="geometry" />
        </mxCell>
        <mxCell id="IF28Vt8e3HH5cNFO-Xon-13" value="" style="endArrow=none;html=1;rounded=0;exitX=0.5;exitY=0.5;exitDx=0;exitDy=0;exitPerimeter=0;entryX=0;entryY=0.5;entryDx=0;entryDy=0;" edge="1" parent="1" source="IF28Vt8e3HH5cNFO-Xon-3" target="IF28Vt8e3HH5cNFO-Xon-5">
          <mxGeometry width="50" height="50" relative="1" as="geometry">
            <mxPoint x="399" y="488" as="sourcePoint" />
            <mxPoint x="449" y="438" as="targetPoint" />
          </mxGeometry>
        </mxCell>
        <mxCell id="IF28Vt8e3HH5cNFO-Xon-14" value="" style="endArrow=none;html=1;rounded=0;exitX=0.5;exitY=0.5;exitDx=0;exitDy=0;exitPerimeter=0;entryX=0;entryY=0.5;entryDx=0;entryDy=0;" edge="1" parent="1" source="IF28Vt8e3HH5cNFO-Xon-3" target="IF28Vt8e3HH5cNFO-Xon-6">
          <mxGeometry width="50" height="50" relative="1" as="geometry">
            <mxPoint x="92" y="347" as="sourcePoint" />
            <mxPoint x="222" y="239" as="targetPoint" />
          </mxGeometry>
        </mxCell>
        <mxCell id="IF28Vt8e3HH5cNFO-Xon-15" value="" style="endArrow=none;html=1;rounded=0;exitX=0.5;exitY=0.5;exitDx=0;exitDy=0;exitPerimeter=0;entryX=0.008;entryY=0.391;entryDx=0;entryDy=0;entryPerimeter=0;" edge="1" parent="1" source="IF28Vt8e3HH5cNFO-Xon-3" target="IF28Vt8e3HH5cNFO-Xon-9">
          <mxGeometry width="50" height="50" relative="1" as="geometry">
            <mxPoint x="102" y="357" as="sourcePoint" />
            <mxPoint x="232" y="249" as="targetPoint" />
          </mxGeometry>
        </mxCell>
        <mxCell id="IF28Vt8e3HH5cNFO-Xon-16" value="" style="endArrow=none;html=1;rounded=0;exitX=0.5;exitY=0.5;exitDx=0;exitDy=0;exitPerimeter=0;entryX=0;entryY=0.5;entryDx=0;entryDy=0;" edge="1" parent="1" source="IF28Vt8e3HH5cNFO-Xon-3" target="IF28Vt8e3HH5cNFO-Xon-11">
          <mxGeometry width="50" height="50" relative="1" as="geometry">
            <mxPoint x="112" y="367" as="sourcePoint" />
            <mxPoint x="242" y="259" as="targetPoint" />
          </mxGeometry>
        </mxCell>
        <mxCell id="IF28Vt8e3HH5cNFO-Xon-17" value="&amp;lt;&amp;lt;include&amp;gt;&amp;gt;" style="html=1;verticalAlign=bottom;labelBackgroundColor=none;endArrow=open;endFill=0;dashed=1;rounded=0;exitX=1;exitY=0.5;exitDx=0;exitDy=0;" edge="1" parent="1" source="IF28Vt8e3HH5cNFO-Xon-5" target="IF28Vt8e3HH5cNFO-Xon-12">
          <mxGeometry width="160" relative="1" as="geometry">
            <mxPoint x="344" y="463" as="sourcePoint" />
            <mxPoint x="504" y="463" as="targetPoint" />
          </mxGeometry>
        </mxCell>
        <mxCell id="IF28Vt8e3HH5cNFO-Xon-18" value="" style="endArrow=none;html=1;rounded=0;exitX=0.5;exitY=0.5;exitDx=0;exitDy=0;exitPerimeter=0;entryX=1;entryY=1;entryDx=0;entryDy=0;" edge="1" parent="1" source="IF28Vt8e3HH5cNFO-Xon-4" target="IF28Vt8e3HH5cNFO-Xon-8">
          <mxGeometry width="50" height="50" relative="1" as="geometry">
            <mxPoint x="92" y="347" as="sourcePoint" />
            <mxPoint x="222" y="334" as="targetPoint" />
          </mxGeometry>
        </mxCell>
        <mxCell id="IF28Vt8e3HH5cNFO-Xon-19" value="" style="endArrow=none;html=1;rounded=0;exitX=0.5;exitY=0.5;exitDx=0;exitDy=0;exitPerimeter=0;entryX=1;entryY=0.5;entryDx=0;entryDy=0;" edge="1" parent="1" source="IF28Vt8e3HH5cNFO-Xon-4" target="IF28Vt8e3HH5cNFO-Xon-7">
          <mxGeometry width="50" height="50" relative="1" as="geometry">
            <mxPoint x="102" y="357" as="sourcePoint" />
            <mxPoint x="232" y="344" as="targetPoint" />
          </mxGeometry>
        </mxCell>
      </root>
    </mxGraphModel>
  </diagram>
</mxfile>
